<svg xmlns="http://www.w3.org/2000/svg" version="1.1" xmlns:xlink="http://www.w3.org/1999/xlink" xmlns:svgjs="http://svgjs.dev/svgjs" width="1000" height="1000" viewBox="0 0 1000 1000"><rect width="1000" height="1000" fill="#ffffff"></rect><g transform="matrix(0.7,0,0,0.7,149.57575757575756,429.45286486486486)"><svg viewBox="0 0 396 80" data-background-color="#ffffff" preserveAspectRatio="xMidYMid meet" height="202" width="1000" xmlns="http://www.w3.org/2000/svg" xmlns:xlink="http://www.w3.org/1999/xlink"><g id="tight-bounds" transform="matrix(1,0,0,1,0.2400000000000091,-0.0864864864864785)"><svg viewBox="0 0 395.52 80.17297297297297" height="80.17297297297297" width="395.52"><g><svg viewBox="0 0 395.52 80.17297297297297" height="80.17297297297297" width="395.52"><g><svg viewBox="0 0 395.52 80.17297297297297" height="80.17297297297297" width="395.52"><g id="textblocktransform"><svg viewBox="0 0 395.52 80.17297297297297" height="80.17297297297297" width="395.52" id="textblock"><g><svg viewBox="0 0 395.52 80.17297297297297" height="80.17297297297297" width="395.52"><g transform="matrix(1,0,0,1,0,0)"><svg width="395.52" viewBox="-0.05 -47 231.58 47.25" height="80.17297297297297" data-palette-color="#551e19"><g class="wordmark-text-0" data-fill-palette-color="primary" id="text-0"><path d="M11.6 0.25Q9.75 0.25 8.95-0.58 8.15-1.4 8.15-3.7L8.15-3.7Q8.15-5.25 8.47-7.68 8.8-10.1 9.55-14.35L9.55-14.35Q10.85-22.2 11.6-27.95L11.6-27.95Q12.05-31.55 12.05-33.95L12.05-33.95Q12.05-36.2 10.4-36.2L10.4-36.2Q9.1-36.2 7.28-34.88 5.45-33.55 3.25-30.65L3.25-30.65Q2.55-29.7 1.7-29.7L1.7-29.7Q1-29.7 0.48-30.38-0.05-31.05-0.05-31.9L-0.05-31.9Q-0.05-32.7 0.28-33.52 0.6-34.35 1.35-35.4L1.35-35.4Q3.75-38.75 6.7-40.58 9.65-42.4 12.6-42.4L12.6-42.4Q15.35-42.4 16.82-40.65 18.3-38.9 18.3-35.55L18.3-35.55Q18.3-34.2 18.05-32.38 17.8-30.55 17.6-29.4 17.4-28.25 17.3-27.8L17.3-27.8Q20.15-35.95 23.7-39.18 27.25-42.4 31.5-42.4L31.5-42.4Q34.75-42.4 36.63-40.1 38.5-37.8 38.5-33.6L38.5-33.6Q38.5-31.95 38.05-29.5L38.05-29.5Q40.55-36.4 43.9-39.4 47.25-42.4 51.6-42.4L51.6-42.4Q55.1-42.4 56.98-40.15 58.85-37.9 58.85-33.85L58.85-33.85Q58.85-31.65 58.2-28.5L58.2-28.5 55.15-14.2Q54.65-11.7 54.65-9.9L54.65-9.9Q54.65-7.8 55.63-6.75 56.6-5.7 58.35-5.7L58.35-5.7Q60-5.7 61.58-6.8 63.15-7.9 65.3-10.45L65.3-10.45Q65.9-11.15 66.65-11.15L66.65-11.15Q67.3-11.15 67.67-10.55 68.05-9.95 68.05-8.9L68.05-8.9Q68.05-6.95 67.1-5.8L67.1-5.8Q64.5-2.65 61.95-1.2 59.4 0.25 56.6 0.25L56.6 0.25Q52.35 0.25 49.95-2.27 47.55-4.8 47.55-9.05L47.55-9.05Q47.55-12 48.75-17.6L48.75-17.6 50.75-26.75Q50.85-27.2 51.1-28.35 51.35-29.5 51.5-30.53 51.65-31.55 51.65-32.55L51.65-32.55Q51.65-34.3 50.98-35.18 50.3-36.05 49.05-36.05L49.05-36.05Q46.7-36.05 44.13-33.02 41.55-30 39.23-23 36.9-16 35.45-4.8L35.45-4.8Q35.1-1.8 34.23-0.78 33.35 0.25 31.4 0.25L31.4 0.25Q29.7 0.25 28.93-0.55 28.15-1.35 28.15-3.55L28.15-3.55Q28.15-5.6 28.7-8.93 29.25-12.25 30.1-16.75L30.1-16.75Q32.4-28.85 32.4-32.35L32.4-32.35Q32.4-34.25 31.68-35.15 30.95-36.05 29.5-36.05L29.5-36.05Q27.05-36.05 24.45-33.27 21.85-30.5 19.38-23.43 16.9-16.35 15.25-4.3L15.25-4.3Q14.9-1.75 14.23-0.75 13.55 0.25 11.6 0.25L11.6 0.25ZM69.1 0.25Q66.85 0.25 65.42-1.83 64-3.9 64-7L64-7Q64-10.75 64.5-13.88 65-17 66.15-20.5L66.15-20.5Q66.65-22 67.55-22.65 68.45-23.3 70.4-23.3L70.4-23.3Q71.5-23.3 71.92-22.95 72.35-22.6 72.35-21.9L72.35-21.9Q72.35-21.5 71.8-19.2L71.8-19.2Q71.3-17.35 71-15.85L71-15.85Q70-10.6 70-8.85L70-8.85Q70-7.8 70.25-7.38 70.5-6.95 71.05-6.95L71.05-6.95Q71.8-6.95 72.92-8.45 74.05-9.95 75.32-13 76.6-16.05 77.8-20.5L77.8-20.5Q78.2-22 79.02-22.65 79.85-23.3 81.5-23.3L81.5-23.3Q82.65-23.3 83.1-23.03 83.55-22.75 83.55-22L83.55-22Q83.55-20.75 82.3-15.15L82.3-15.15Q80.9-8.75 80.9-7.25L80.9-7.25Q80.9-6.3 81.3-5.78 81.7-5.25 82.35-5.25L82.35-5.25Q83.35-5.25 84.72-6.48 86.1-7.7 88.4-10.45L88.4-10.45Q89-11.15 89.75-11.15L89.75-11.15Q90.4-11.15 90.77-10.55 91.15-9.95 91.15-8.9L91.15-8.9Q91.15-6.9 90.2-5.8L90.2-5.8Q88.05-3.15 85.57-1.45 83.1 0.25 79.95 0.25L79.95 0.25Q77.55 0.25 76.42-1.6 75.3-3.45 75.3-6.8L75.3-6.8Q74.45-3.4 72.75-1.58 71.05 0.25 69.1 0.25L69.1 0.25ZM106.05-11.15Q106.7-11.15 107.07-10.55 107.45-9.95 107.45-8.9L107.45-8.9Q107.45-6.9 106.5-5.8L106.5-5.8Q104.35-3.15 101.82-1.45 99.3 0.25 96.1 0.25L96.1 0.25Q91.7 0.25 89.57-3.75 87.45-7.75 87.45-14.1L87.45-14.1Q87.45-20.2 89.02-28 90.6-35.8 93.67-41.4 96.75-47 101-47L101-47Q103.4-47 104.77-44.78 106.15-42.55 106.15-38.4L106.15-38.4Q106.15-32.45 102.85-24.6 99.55-16.75 93.9-9.05L93.9-9.05Q94.25-7 95.05-6.13 95.85-5.25 97.15-5.25L97.15-5.25Q99.2-5.25 100.75-6.43 102.3-7.6 104.7-10.45L104.7-10.45Q105.3-11.15 106.05-11.15L106.05-11.15ZM99.9-42.05Q98.75-42.05 97.3-37.9 95.85-33.75 94.75-27.6 93.65-21.45 93.55-15.8L93.55-15.8Q97.1-21.65 99.2-27.53 101.3-33.4 101.3-38.25L101.3-38.25Q101.3-42.05 99.9-42.05L99.9-42.05ZM125.69-11.15Q126.34-11.15 126.72-10.55 127.09-9.95 127.09-8.9L127.09-8.9Q127.09-6.9 126.14-5.8L126.14-5.8Q123.99-3.15 121.44-1.45 118.89 0.25 115.59 0.25L115.59 0.25Q105.39 0.25 105.39-14.1L105.39-14.1Q105.39-16.3 105.54-18.55L105.54-18.55 103.59-18.55Q102.09-18.55 101.57-19.1 101.04-19.65 101.04-20.85L101.04-20.85Q101.04-23.65 103.29-23.65L103.29-23.65 106.14-23.65Q106.99-29.15 108.74-33.7 110.49-38.25 112.97-40.95 115.44-43.65 118.29-43.65L118.29-43.65Q120.39-43.65 121.59-41.8 122.79-39.95 122.79-37.15L122.79-37.15Q122.79-29.4 116.29-23.65L116.29-23.65 121.89-23.65Q122.69-23.65 123.04-23.3 123.39-22.95 123.39-22L123.39-22Q123.39-18.55 117.74-18.55L117.74-18.55 111.64-18.55Q111.54-16.05 111.54-14.65L111.54-14.65Q111.54-9.45 112.77-7.35 113.99-5.25 116.64-5.25L116.64-5.25Q118.79-5.25 120.44-6.55 122.09-7.85 124.34-10.45L124.34-10.45Q124.94-11.15 125.69-11.15L125.69-11.15ZM116.94-38.85Q116.19-38.85 115.27-36.98 114.34-35.1 113.52-31.78 112.69-28.45 112.14-24.4L112.14-24.4Q115.09-26.95 116.57-30.13 118.04-33.3 118.04-35.9L118.04-35.9Q118.04-38.85 116.94-38.85L116.94-38.85ZM129.59-26.6Q127.49-26.6 126.44-27.58 125.39-28.55 125.39-30.3L125.39-30.3Q125.39-32.05 126.77-33.23 128.14-34.4 130.19-34.4L130.19-34.4Q132.04-34.4 133.19-33.5 134.34-32.6 134.34-30.95L134.34-30.95Q134.34-28.95 133.04-27.78 131.74-26.6 129.59-26.6L129.59-26.6ZM129.19 0.25Q125.94 0.25 124.47-2.05 122.99-4.35 122.99-8.15L122.99-8.15Q122.99-10.4 123.57-13.93 124.14-17.45 125.04-20.5L125.04-20.5Q125.49-22.1 126.24-22.7 126.99-23.3 128.64-23.3L128.64-23.3Q131.19-23.3 131.19-21.6L131.19-21.6Q131.19-20.35 130.24-15.8L130.24-15.8Q129.04-10.3 129.04-8.35L129.04-8.35Q129.04-6.85 129.44-6.05 129.84-5.25 130.79-5.25L130.79-5.25Q131.69-5.25 133.04-6.5 134.39-7.75 136.64-10.45L136.64-10.45Q137.24-11.15 137.99-11.15L137.99-11.15Q138.64-11.15 139.02-10.55 139.39-9.95 139.39-8.9L139.39-8.9Q139.39-6.9 138.44-5.8L138.44-5.8Q133.49 0.25 129.19 0.25L129.19 0.25ZM164.24-11.15Q164.89-11.15 165.26-10.55 165.64-9.95 165.64-8.9L165.64-8.9Q165.64-6.9 164.69-5.8L164.69-5.8Q162.44-3.05 160.14-1.4 157.84 0.25 154.69 0.25L154.69 0.25Q150.84 0.25 148.49-1.95 146.14-4.15 146.14-7.8L146.14-7.8Q146.14-9.75 148.14-10.6L148.14-10.6Q150.34-11.55 151.29-12.63 152.24-13.7 152.24-15.25L152.24-15.25Q152.24-16.15 151.86-16.6 151.49-17.05 150.94-17.05L150.94-17.05Q149.59-17.05 147.96-15.1 146.34-13.15 144.94-10.08 143.54-7 142.74-3.75L142.74-3.75Q142.19-1.4 141.46-0.58 140.74 0.25 139.19 0.25L139.19 0.25Q137.64 0.25 136.91-0.88 136.19-2 135.94-4.35 135.69-6.7 135.69-11.25L135.69-11.25Q135.69-18.95 137.26-27.3 138.84-35.65 141.91-41.33 144.99-47 149.29-47L149.29-47Q151.59-47 153.01-45.03 154.44-43.05 154.44-39.9L154.44-39.9Q154.44-34.85 151.49-29.43 148.54-24 141.89-16.75L141.89-16.75Q141.74-14.15 141.74-11.4L141.74-11.4Q144.14-17.65 147.24-20.48 150.34-23.3 153.04-23.3L153.04-23.3Q155.54-23.3 157.06-21.6 158.59-19.9 158.59-17.4L158.59-17.4Q158.59-14.65 157.19-12.35 155.79-10.05 152.39-8.25L152.39-8.25Q152.59-6.9 153.61-6.08 154.64-5.25 156.09-5.25L156.09-5.25Q157.64-5.25 159.09-6.45 160.54-7.65 162.89-10.45L162.89-10.45Q163.49-11.15 164.24-11.15L164.24-11.15ZM148.24-42.05Q147.34-42.05 146.24-39.48 145.14-36.9 144.11-32.52 143.09-28.15 142.44-23L142.44-23Q145.54-26.65 147.56-30.95 149.59-35.25 149.59-38.75L149.59-38.75Q149.59-40.35 149.24-41.2 148.89-42.05 148.24-42.05L148.24-42.05ZM167.74 0.25Q164.64 0.25 162.79-2 160.94-4.25 160.94-7.9L160.94-7.9Q160.94-11.9 162.79-15.48 164.64-19.05 167.71-21.23 170.79-23.4 174.24-23.4L174.24-23.4Q175.34-23.4 175.71-22.98 176.09-22.55 176.34-21.45L176.34-21.45Q177.39-21.65 178.54-21.65L178.54-21.65Q180.99-21.65 180.99-19.9L180.99-19.9Q180.99-18.85 180.24-14.9L180.24-14.9Q179.09-9.15 179.09-6.9L179.09-6.9Q179.09-6.15 179.46-5.7 179.84-5.25 180.44-5.25L180.44-5.25Q181.39-5.25 182.74-6.48 184.09-7.7 186.39-10.45L186.39-10.45Q186.99-11.15 187.74-11.15L187.74-11.15Q188.39-11.15 188.76-10.55 189.14-9.95 189.14-8.9L189.14-8.9Q189.14-6.9 188.19-5.8L188.19-5.8Q186.14-3.25 183.84-1.5 181.54 0.25 179.39 0.25L179.39 0.25Q177.74 0.25 176.36-0.88 174.99-2 174.29-3.95L174.29-3.95Q171.69 0.25 167.74 0.25L167.74 0.25ZM169.54-4.8Q170.64-4.8 171.64-6.1 172.64-7.4 173.09-9.55L173.09-9.55 174.94-18.75Q172.84-18.7 171.06-17.18 169.29-15.65 168.24-13.15 167.19-10.65 167.19-7.85L167.19-7.85Q167.19-6.3 167.81-5.55 168.44-4.8 169.54-4.8L169.54-4.8ZM188.63 0.25Q186.73 0.25 185.96-1.75 185.18-3.75 185.18-8.15L185.18-8.15Q185.18-14.65 187.03-20.5L187.03-20.5Q187.48-21.95 188.51-22.63 189.53-23.3 191.38-23.3L191.38-23.3Q192.38-23.3 192.78-23.05 193.18-22.8 193.18-22.1L193.18-22.1Q193.18-21.3 192.43-18.5L192.43-18.5Q191.93-16.5 191.63-15 191.33-13.5 191.13-11.3L191.13-11.3Q192.78-15.6 194.83-18.3 196.88-21 198.86-22.15 200.83-23.3 202.48-23.3L202.48-23.3Q205.73-23.3 205.73-20.05L205.73-20.05Q205.73-19.4 205.28-16.9L205.28-16.9Q204.88-14.9 204.88-14.4L204.88-14.4Q204.88-12.65 206.13-12.65L206.13-12.65Q207.53-12.65 209.73-14.85L209.73-14.85Q210.38-15.5 211.08-15.5L211.08-15.5Q211.73-15.5 212.11-14.93 212.48-14.35 212.48-13.4L212.48-13.4Q212.48-11.55 211.48-10.5L211.48-10.5Q210.08-9.05 208.21-8.03 206.33-7 204.23-7L204.23-7Q201.58-7 200.21-8.35 198.83-9.7 198.83-12L198.83-12Q198.83-12.75 198.98-13.5L198.98-13.5Q199.08-14.5 199.08-14.85L199.08-14.85Q199.08-15.65 198.53-15.65L198.53-15.65Q197.78-15.65 196.56-13.98 195.33-12.3 194.13-9.55 192.93-6.8 192.18-3.75L192.18-3.75Q191.63-1.4 190.91-0.58 190.18 0.25 188.63 0.25L188.63 0.25ZM230.13-11.15Q230.78-11.15 231.16-10.55 231.53-9.95 231.53-8.9L231.53-8.9Q231.53-6.9 230.58-5.8L230.58-5.8Q228.43-3.15 225.88-1.45 223.33 0.25 220.03 0.25L220.03 0.25Q209.83 0.25 209.83-14.1L209.83-14.1Q209.83-16.3 209.98-18.55L209.98-18.55 208.03-18.55Q206.53-18.55 206.01-19.1 205.48-19.65 205.48-20.85L205.48-20.85Q205.48-23.65 207.73-23.65L207.73-23.65 210.58-23.65Q211.43-29.15 213.18-33.7 214.93-38.25 217.41-40.95 219.88-43.65 222.73-43.65L222.73-43.65Q224.83-43.65 226.03-41.8 227.23-39.95 227.23-37.15L227.23-37.15Q227.23-29.4 220.73-23.65L220.73-23.65 226.33-23.65Q227.13-23.65 227.48-23.3 227.83-22.95 227.83-22L227.83-22Q227.83-18.55 222.18-18.55L222.18-18.55 216.08-18.55Q215.98-16.05 215.98-14.65L215.98-14.65Q215.98-9.45 217.21-7.35 218.43-5.25 221.08-5.25L221.08-5.25Q223.23-5.25 224.88-6.55 226.53-7.85 228.78-10.45L228.78-10.45Q229.38-11.15 230.13-11.15L230.13-11.15ZM221.38-38.85Q220.63-38.85 219.71-36.98 218.78-35.1 217.96-31.78 217.13-28.45 216.58-24.4L216.58-24.4Q219.53-26.95 221.01-30.13 222.48-33.3 222.48-35.9L222.48-35.9Q222.48-38.85 221.38-38.85L221.38-38.85Z" fill="#551e19" data-fill-palette-color="primary"></path></g></svg></g></svg></g></svg></g></svg></g></svg></g><defs></defs></svg><rect width="395.52" height="80.17297297297297" fill="none" stroke="none" visibility="hidden"></rect></g></svg></g></svg>